<svg xmlns="http://www.w3.org/2000/svg" viewBox="0 0 60 51.56"><defs><style>.cls-1,.cls-2{fill:#000;}.cls-2{font-size:28.25px;font-family:Intelo-ExtraBold;font-weight:800;letter-spacing:0.04em;}.cls-3{letter-spacing:0.02em;}</style></defs><g id="Camada_2" data-name="Camada 2"><g id="Camada_1-2" data-name="Camada 1"><path class="cls-1" d="M52.26,0H7.74A7.75,7.75,0,0,0,0,7.74V33.26A7.75,7.75,0,0,0,7.74,41H52.26A7.75,7.75,0,0,0,60,33.26V7.74A7.75,7.75,0,0,0,52.26,0ZM55,32.14a4.36,4.36,0,0,1-4.36,4.36H9.36A4.36,4.36,0,0,1,5,32.14V8.86A4.36,4.36,0,0,1,9.36,4.5H50.64A4.36,4.36,0,0,1,55,8.86Z"/><rect class="cls-1" x="23" y="39.5" width="14" height="10.06"/><rect class="cls-1" x="12" y="47.56" width="36" height="4" rx="2"/><text class="cls-2" transform="translate(9.32 30.23) scale(1.12 1)">T<tspan class="cls-3" x="17.71" y="0">V</tspan></text></g></g></svg>